<mxfile host="app.diagrams.net" modified="2023-10-27T00:42:54.006Z" agent="Mozilla/5.0 (Windows NT 10.0; Win64; x64) AppleWebKit/537.36 (KHTML, like Gecko) Chrome/118.0.0.0 Safari/537.36" version="21.1.7" etag="GgOtKx2x5J855xGqWt5T" type="github">
  <diagram name="PÃ¡gina-1" id="Jg9sq6ZWYDZWG7IJHIOj">
    <mxGraphModel>
      <root>
        <mxCell id="0" />
        <mxCell id="1" parent="0" />
      </root>
    </mxGraphModel>
  </diagram>
</mxfile>
